<svg version="1.1" xmlns="http://www.w3.org/2000/svg" xmlns:xlink="http://www.w3.org/1999/xlink" width="859" height="451" viewBox="0 0 859 451"><defs/><g transform="matrix(1,0,0,1,0,0)"><g><g><g><path fill="none" stroke="#d3d3d3" paint-order="fill stroke markers" d=" M 0 0 L 1200 0" stroke-miterlimit="10" stroke-opacity="0.8" stroke-dasharray="5"/></g><g><path fill="none" stroke="#d3d3d3" paint-order="fill stroke markers" d=" M 0 0 L 0 800" stroke-miterlimit="10" stroke-opacity="0.8" stroke-dasharray="5"/></g></g><g id="_93B26CFA-FEDC-4343-A00E-3907C4FA5F0D" transform="matrix(1,0,0,1,708,350)"><g><path fill="none" stroke="none"/></g><g transform="matrix(0.9345794392523364,0,0,0.8771929824561403,0,0)"><g transform="matrix(1,0,0,1,0,0)"><path fill="none" stroke="#000000" id="_93B26CFA-FEDC-4343-A00E-3907C4FA5F0D?shapeType=BORDER&amp;renderType=STROKE" paint-order="fill stroke markers" d=" M 0 0 M 1.5 30 C 1.5 14.3 14.3 1.5 30 1.5 L 80 1.5 C 95.7 1.5 108.5 14.3 108.5 30 C 108.5 45.7 95.7 58.5 80 58.5 L 30 58.5 C 14.3 58.5 1.5 45.7 1.5 30 Z" stroke-miterlimit="10" stroke-width="1.5" stroke-dasharray=""/></g></g><g transform="matrix(1,0,0,1,22.773773193359375,18.5)"><text fill="#000000" stroke="none" font-family="Open Sans" font-size="10pt" font-style="normal" font-weight="normal" text-decoration="normal" x="27.226226806640625" y="10.4" text-anchor="middle" dominant-baseline="alphabetic">Violation</text></g></g><g transform="matrix(1,0,0,1,708,350)"/><g id="_4C8D5404-388E-4D7D-B576-CFF8155CF94E" transform="matrix(1,0,0,1,709,210)"><g><path fill="none" stroke="none"/></g><g transform="matrix(1,0,0,1,0,0)"><path fill="none" stroke="#000000" id="_4C8D5404-388E-4D7D-B576-CFF8155CF94E?shapeType=BORDER&amp;renderType=STROKE" paint-order="fill stroke markers" d=" M 0 0 L 100 0 L 100 50 L 0 50 L 0 0 Z Z" stroke-miterlimit="10" stroke-width="1.5" stroke-dasharray=""/></g><g transform="matrix(1,0,0,1,37.044273376464844,18.5)"><text fill="#000000" stroke="none" font-family="Open Sans" font-size="10pt" font-style="normal" font-weight="normal" text-decoration="normal" x="12.955726623535156" y="10.4" text-anchor="middle" dominant-baseline="alphabetic">Fine</text></g></g><g transform="matrix(1,0,0,1,709,210)"/><g id="_2BE87AD6-1664-478B-8F10-11B14007656D" transform="matrix(1,0,0,1,369,344)"><g><path fill="none" stroke="none"/></g><g transform="matrix(0.9345794392523364,0,0,0.8771929824561403,0,0)"><g transform="matrix(1,0,0,1,0,0)"><path fill="none" stroke="#000000" id="_2BE87AD6-1664-478B-8F10-11B14007656D?shapeType=BORDER&amp;renderType=STROKE" paint-order="fill stroke markers" d=" M 0 0 M 1.5 30 C 1.5 14.3 14.3 1.5 30 1.5 L 80 1.5 C 95.7 1.5 108.5 14.3 108.5 30 C 108.5 45.7 95.7 58.5 80 58.5 L 30 58.5 C 14.3 58.5 1.5 45.7 1.5 30 Z" stroke-miterlimit="10" stroke-width="1.5" stroke-dasharray=""/></g></g><g transform="matrix(1,0,0,1,30.935768127441406,18.5)"><text fill="#000000" stroke="none" font-family="Open Sans" font-size="10pt" font-style="normal" font-weight="normal" text-decoration="normal" x="19.064231872558594" y="10.4" text-anchor="middle" dominant-baseline="alphabetic">Driver</text></g></g><g transform="matrix(1,0,0,1,369,344)"/><g id="_AC494746-655E-433A-8EC5-62AFFF18A387" transform="matrix(1,0,0,1,534,83)"><g><path fill="none" stroke="none"/></g><g transform="matrix(1,0,0,1,0,0)"><path fill="none" stroke="#000000" id="_AC494746-655E-433A-8EC5-62AFFF18A387?shapeType=BORDER&amp;renderType=STROKE" paint-order="fill stroke markers" d=" M 0 0 L 133 0 L 133 63 L 0 63 L 0 0 Z Z" stroke-miterlimit="10" stroke-width="1.5" stroke-dasharray=""/></g><g transform="matrix(1,0,0,1,11.198158264160156,18.5)"><text fill="#000000" stroke="none" font-family="Open Sans" font-size="10pt" font-style="normal" font-weight="normal" text-decoration="normal" x="55.301841735839844" y="10.4" text-anchor="middle" dominant-baseline="alphabetic">Should the driver </text><text fill="#000000" stroke="none" font-family="Open Sans" font-size="10pt" font-style="normal" font-weight="normal" text-decoration="normal" x="55.301841735839844" y="23.400000000000002" text-anchor="middle" dominant-baseline="alphabetic">  be suspended?   </text></g></g><g transform="matrix(1,0,0,1,534,83)"/><g id="_4EBEA696-9F6C-4D3C-8CAF-7FA673F9E275#_800A3BBB-90A3-4D9D-BA5E-A311DED0134F"><g><path fill="none" stroke="#000000" paint-order="fill stroke markers" d=" M 758.1785714285714 350 L 758.7142884474173 274.9996173615805" stroke-miterlimit="10" stroke-dasharray=""/></g><g transform="matrix(1,0,0,1,758.1785714285714,350)"/><g transform="matrix(0.9999744907720326,0.00714267493408436,-0.00714267493408436,0.9999744907720326,753.8215561175684,259.9642866253296)"><path fill="#000000" stroke="#000000" paint-order="fill stroke markers" d=" M 10 15 L 0 15 L 5 0 Z" stroke-miterlimit="10" stroke-dasharray=""/></g><g transform="matrix(1,0,0,1,768.1783163362918,304.92857325065916)"/></g><g id="_4EBEA696-9F6C-4D3C-8CAF-7FA673F9E275#_AEC4AA5F-50C3-4FED-A0C2-261F90290731"><g><path fill="none" stroke="#000000" paint-order="fill stroke markers" d=" M 726.1161825726141 210 L 653.8745909823191 155.0781590748862" stroke-miterlimit="10" stroke-dasharray=""/></g><g transform="matrix(1,0,0,1,726.1161825726141,210)"/><g transform="matrix(0.6052106049924146,-0.79606540158753,0.79606540158753,0.6052106049924146,638.9075569335441,149.98032700793766)"><path fill="#000000" stroke="#000000" paint-order="fill stroke markers" d=" M 10 15 L 0 15 L 5 0 Z" stroke-miterlimit="10" stroke-dasharray=""/></g><g transform="matrix(1,0,0,1,647.9857160084302,170.03934598412468)"/></g><g id="_4EBEA696-9F6C-4D3C-8CAF-7FA673F9E275#_982211B1-5246-49CD-BE85-3211F71253CF"><g><path fill="none" stroke="#000000" paint-order="fill stroke markers" d=" M 436.82907662082516 344 L 569.3258714303681 158.21248331113668" stroke-miterlimit="10" stroke-dasharray=""/></g><g transform="matrix(1,0,0,1,436.82907662082516,344)"/><g transform="matrix(0.8141655540757774,0.5806328018261476,-0.5806328018261476,0.8141655540757774,573.9645356873815,143.09683599086927)"><path fill="#000000" stroke="#000000" paint-order="fill stroke markers" d=" M 10 15 L 0 15 L 5 0 Z" stroke-miterlimit="10" stroke-dasharray=""/></g><g transform="matrix(1,0,0,1,457.510595397436,239.19367198173853)"/></g></g></g></svg>