<svg version="1.1" xmlns="http://www.w3.org/2000/svg" xmlns:xlink="http://www.w3.org/1999/xlink" width="376" height="326" viewBox="0 0 376 326"><defs/><g transform="matrix(1,0,0,1,0,0)"><g><g><g><path fill="none" stroke="#d3d3d3" paint-order="fill stroke markers" d=" M 0 0 L 1200 0" stroke-miterlimit="10" stroke-opacity="0.8" stroke-dasharray="5"/></g><g><path fill="none" stroke="#d3d3d3" paint-order="fill stroke markers" d=" M 0 0 L 0 800" stroke-miterlimit="10" stroke-opacity="0.8" stroke-dasharray="5"/></g></g><g id="_B5CA7DA8-6451-4D29-A094-14991F4CF7D5" transform="matrix(1,0,0,1,50,225)"><g><path fill="none" stroke="none"/></g><g transform="matrix(0.9345794392523364,0,0,0.8771929824561403,0,0)"><g transform="matrix(1,0,0,1,0,0)"><path fill="none" stroke="#000000" id="_B5CA7DA8-6451-4D29-A094-14991F4CF7D5?shapeType=BORDER&amp;renderType=STROKE" paint-order="fill stroke markers" d=" M 0 0 M 1.5 30 C 1.5 14.3 14.3 1.5 30 1.5 L 80 1.5 C 95.7 1.5 108.5 14.3 108.5 30 C 108.5 45.7 95.7 58.5 80 58.5 L 30 58.5 C 14.3 58.5 1.5 45.7 1.5 30 Z" stroke-miterlimit="10" stroke-width="1.5" stroke-dasharray=""/></g></g><g transform="matrix(1,0,0,1,38.39158630371094,18.5)"><text fill="#000000" stroke="none" font-family="Open Sans" font-size="10pt" font-style="normal" font-weight="normal" text-decoration="normal" x="11.608413696289062" y="10.4" text-anchor="middle" dominant-baseline="alphabetic">Age</text></g></g><g transform="matrix(1,0,0,1,50,225)"/><g id="_D524F9C3-F5EE-451E-948F-1DD4F968322B" transform="matrix(1,0,0,1,225,225)"><g><path fill="none" stroke="none"/></g><g transform="matrix(0.9345794392523364,0,0,0.8771929824561403,0,0)"><g transform="matrix(1,0,0,1,0,0)"><path fill="none" stroke="#000000" id="_D524F9C3-F5EE-451E-948F-1DD4F968322B?shapeType=BORDER&amp;renderType=STROKE" paint-order="fill stroke markers" d=" M 0 0 M 1.5 30 C 1.5 14.3 14.3 1.5 30 1.5 L 80 1.5 C 95.7 1.5 108.5 14.3 108.5 30 C 108.5 45.7 95.7 58.5 80 58.5 L 30 58.5 C 14.3 58.5 1.5 45.7 1.5 30 Z" stroke-miterlimit="10" stroke-width="1.5" stroke-dasharray=""/></g></g><g transform="matrix(1,0,0,1,19.0572509765625,12)"><text fill="#000000" stroke="none" font-family="Open Sans" font-size="10pt" font-style="normal" font-weight="normal" text-decoration="normal" x="30.9427490234375" y="10.4" text-anchor="middle" dominant-baseline="alphabetic"> Previous  </text><text fill="#000000" stroke="none" font-family="Open Sans" font-size="10pt" font-style="normal" font-weight="normal" text-decoration="normal" x="30.9427490234375" y="23.400000000000002" text-anchor="middle" dominant-baseline="alphabetic">incidents?</text></g></g><g transform="matrix(1,0,0,1,225,225)"/><g id="_38CE8358-8E76-469A-8D5B-42C51A199471" transform="matrix(1,0,0,1,137,50)"><g><path fill="none" stroke="none"/></g><g transform="matrix(1,0,0,1,0,0)"><path fill="none" stroke="#000000" id="_38CE8358-8E76-469A-8D5B-42C51A199471?shapeType=BORDER&amp;renderType=STROKE" paint-order="fill stroke markers" d=" M 0 0 L 100 0 L 100 50 L 0 50 L 0 0 Z Z" stroke-miterlimit="10" stroke-width="1.5" stroke-dasharray=""/></g><g transform="matrix(1,0,0,1,17.921463012695312,18.5)"><text fill="#000000" stroke="none" font-family="Open Sans" font-size="10pt" font-style="normal" font-weight="normal" text-decoration="normal" x="32.07853698730469" y="10.4" text-anchor="middle" dominant-baseline="alphabetic">Base price</text></g></g><g transform="matrix(1,0,0,1,137,50)"/><g id="_4493CC19-AEE3-4928-932C-F6821E8FC854#_2523910D-0611-4584-BA02-4C237351B043"><g><path fill="none" stroke="#000000" paint-order="fill stroke markers" d=" M 112.42857142857142 225 L 167.89394328423433 113.43172327883897" stroke-miterlimit="10" stroke-dasharray=""/></g><g transform="matrix(1,0,0,1,112.42857142857142,225)"/><g transform="matrix(0.8954482185892646,0.4451656858129484,-0.4451656858129484,0.8954482185892646,170.09418747848224,97.77417157093525)"><path fill="#000000" stroke="#000000" paint-order="fill stroke markers" d=" M 10 15 L 0 15 L 5 0 Z" stroke-miterlimit="10" stroke-dasharray=""/></g><g transform="matrix(1,0,0,1,121.38305361446406,158.0483431418705)"/></g><g id="_4493CC19-AEE3-4928-932C-F6821E8FC854#_18A8861F-2ADC-4BF4-BEE3-6DD56B58D9ED"><g><path fill="none" stroke="#000000" paint-order="fill stroke markers" d=" M 262.42857142857144 225 L 206.31024600886187 113.40105740398664" stroke-miterlimit="10" stroke-dasharray=""/></g><g transform="matrix(1,0,0,1,262.42857142857144,225)"/><g transform="matrix(0.8934038269324426,-0.4492544958288855,0.4492544958288855,0.8934038269324426,195.10440943676636,102.24627247914442)"><path fill="#000000" stroke="#000000" paint-order="fill stroke markers" d=" M 10 15 L 0 15 L 5 0 Z" stroke-miterlimit="10" stroke-dasharray=""/></g><g transform="matrix(1,0,0,1,208.505466840753,158.00745504171115)"/></g></g></g></svg>